<?xml version="1.0" standalone="no"?>
<!DOCTYPE svg PUBLIC "-//W3C//DTD SVG 20010904//EN"
 "http://www.w3.org/TR/2001/REC-SVG-20010904/DTD/svg10.dtd">
<svg version="1.0" xmlns="http://www.w3.org/2000/svg"
 width="429.000000pt" height="429.000000pt" viewBox="0 0 429.000000 429.000000"
 preserveAspectRatio="xMidYMid meet">
<metadata>
Created by potrace 1.14, written by Peter Selinger 2001-2017
</metadata>
<g transform="translate(0.000000,429.000000) scale(0.100000,-0.100000)"
fill="#000000" stroke="none">
<path d="M500 4282 c0 -4 -9 -8 -21 -9 -29 -2 -111 -57 -135 -90 -63 -84 -67
-106 -72 -318 l-3 -180 -41 -20 c-74 -36 -131 -104 -145 -174 -7 -35 -8 -18
11 -216 2 -16 6 -46 9 -65 9 -51 26 -176 31 -227 1 -12 5 -25 8 -29 4 -3 3
-17 -2 -29 -5 -13 -5 -25 0 -27 4 -2 11 -28 13 -58 3 -30 6 -55 7 -55 0 0 3
-20 6 -45 2 -24 7 -60 9 -80 12 -86 17 -127 20 -155 2 -16 4 -30 5 -30 2 0 7
-35 14 -100 2 -27 8 -72 12 -100 3 -27 7 -58 7 -67 1 -10 5 -18 10 -18 5 0 4
-6 -2 -13 -6 -8 -8 -16 -5 -19 5 -6 7 -16 24 -130 10 -69 7 -280 -5 -378 -2
-19 -5 -70 -7 -112 -2 -43 -6 -78 -10 -78 -4 0 -3 -11 2 -25 5 -14 6 -25 2
-25 -4 0 -7 -24 -8 -53 0 -28 -4 -95 -8 -147 -4 -52 -9 -126 -11 -165 -5 -105
-16 -283 -20 -340 -21 -275 -21 -375 -2 -375 4 0 5 -4 2 -10 -3 -5 -1 -10 4
-10 6 0 11 -6 11 -12 1 -17 41 -63 68 -77 12 -6 21 -17 19 -24 -1 -7 4 -11 12
-9 8 2 34 -4 59 -13 24 -10 46 -15 48 -12 3 3 19 1 35 -3 16 -5 29 -5 29 0 0
5 13 5 30 0 21 -6 30 -5 30 3 0 8 3 8 8 2 8 -11 172 -14 172 -3 0 4 13 3 29
-2 21 -6 31 -5 35 3 2 7 5 8 5 2 1 -9 97 -12 106 -4 2 3 24 3 49 1 30 -3 44
-8 40 -16 -3 -6 0 -4 8 4 16 18 82 15 72 -3 -3 -7 0 -5 8 3 16 18 82 15 72 -3
-3 -7 0 -5 8 3 16 18 82 15 72 -3 -3 -7 0 -5 8 3 16 18 82 15 72 -3 -3 -7 0
-5 8 3 16 18 82 15 72 -3 -3 -7 0 -5 8 3 16 18 82 15 72 -3 -3 -7 0 -5 8 3 16
18 82 15 72 -3 -3 -7 0 -5 8 3 10 12 32 14 111 10 53 -3 97 -2 97 2 0 4 14 3
30 -2 21 -6 30 -5 30 3 0 8 3 8 8 2 8 -11 172 -14 172 -3 0 4 13 3 29 -2 21
-6 31 -5 35 3 2 7 5 8 5 2 1 -9 97 -12 106 -4 2 3 24 3 49 1 30 -3 44 -8 40
-16 -3 -6 0 -4 8 4 16 18 82 15 72 -3 -3 -7 0 -5 8 3 16 18 82 15 72 -3 -3 -7
0 -5 8 3 16 18 82 15 72 -3 -3 -7 0 -5 8 3 16 18 82 15 72 -3 -3 -7 0 -5 8 3
16 18 82 15 72 -3 -3 -7 0 -5 8 3 16 18 82 15 72 -3 -3 -7 0 -5 8 3 16 18 82
15 72 -3 -3 -7 0 -5 8 3 10 12 32 14 111 10 53 -3 97 -2 97 2 0 4 13 3 30 -2
21 -6 30 -5 30 3 0 8 3 8 8 2 8 -11 172 -14 172 -3 0 4 13 3 29 -2 21 -6 31
-5 35 3 2 7 5 8 5 2 1 -9 97 -12 106 -4 2 3 24 3 49 1 30 -3 44 -8 40 -16 -3
-6 0 -4 8 4 16 18 82 15 72 -3 -3 -7 0 -5 8 3 16 18 82 15 72 -3 -3 -7 0 -5 8
3 16 18 82 15 72 -3 -3 -7 1 -5 8 4 9 12 20 14 36 8 13 -5 22 -4 22 1 0 5 15
8 34 6 19 -1 33 1 31 5 -4 5 18 16 46 23 9 2 56 37 87 65 15 13 20 20 12 15
-12 -6 -12 -3 2 12 25 29 44 85 42 124 -1 19 -5 80 -8 135 -4 55 -9 141 -12
190 -3 50 -6 108 -8 130 -2 22 -7 87 -10 145 -4 58 -9 139 -11 180 -3 41 -7
111 -10 155 -3 44 -7 105 -9 135 -28 353 -25 641 6 661 6 4 6 9 -1 13 -6 4 -8
12 -5 18 4 6 8 23 10 37 1 14 5 51 9 81 4 30 9 69 10 85 2 17 4 30 5 30 2 0
10 75 13 117 1 15 5 30 9 33 3 4 4 18 2 31 -3 15 0 24 8 24 9 0 8 3 -2 10 -8
5 -10 10 -5 10 6 0 11 23 12 52 1 29 8 55 15 59 8 6 9 9 2 9 -8 0 -9 11 -4 38
5 20 11 62 14 92 10 117 19 165 30 172 8 6 7 8 -2 8 -10 0 -10 5 -2 20 8 14 8
20 0 20 -6 0 -8 5 -3 13 9 15 12 30 17 82 2 22 5 40 6 40 1 0 3 16 5 35 1 19
6 62 10 95 5 33 8 74 7 92 -2 78 -74 175 -154 210 l-38 17 0 110 c-1 229 -4
258 -32 316 -14 30 -37 66 -50 80 -32 35 -101 80 -120 80 -9 0 -19 4 -23 9 -7
12 -3285 14 -3285 3z"/>
<path d="M3954 172 c4 -3 14 -7 22 -8 9 -1 13 0 10 4 -4 3 -14 7 -22 8 -9 1
-13 0 -10 -4z"/>
<path d="M3917 143 c-10 -9 -9 -23 1 -23 5 0 9 7 9 15 0 17 -1 18 -10 8z"/>
<path d="M570 130 c0 -5 5 -10 10 -10 6 0 10 5 10 10 0 6 -4 10 -10 10 -5 0
-10 -4 -10 -10z"/>
<path d="M1113 125 c0 -8 4 -12 9 -9 5 3 6 10 3 15 -9 13 -12 11 -12 -6z"/>
<path d="M1273 125 c0 -8 4 -12 9 -9 5 3 6 10 3 15 -9 13 -12 11 -12 -6z"/>
<path d="M1433 125 c0 -8 4 -12 9 -9 5 3 6 10 3 15 -9 13 -12 11 -12 -6z"/>
<path d="M2393 125 c0 -8 4 -12 9 -9 5 3 6 10 3 15 -9 13 -12 11 -12 -6z"/>
<path d="M2553 125 c0 -8 4 -12 9 -9 5 3 6 10 3 15 -9 13 -12 11 -12 -6z"/>
<path d="M2713 125 c0 -8 4 -12 9 -9 5 3 6 10 3 15 -9 13 -12 11 -12 -6z"/>
<path d="M3673 125 c0 -8 4 -12 9 -9 5 3 6 10 3 15 -9 13 -12 11 -12 -6z"/>
<path d="M455 121 c-3 -5 -2 -12 3 -15 5 -3 9 1 9 9 0 17 -3 19 -12 6z"/>
<path d="M716 108 c3 -4 11 -5 19 -1 21 7 19 12 -4 10 -11 0 -18 -5 -15 -9z"/>
<path d="M836 108 c3 -4 11 -5 19 -1 21 7 19 12 -4 10 -11 0 -18 -5 -15 -9z"/>
<path d="M1010 110 c0 -5 5 -10 11 -10 5 0 7 5 4 10 -3 6 -8 10 -11 10 -2 0
-4 -4 -4 -10z"/>
<path d="M1170 110 c0 -5 5 -10 11 -10 5 0 7 5 4 10 -3 6 -8 10 -11 10 -2 0
-4 -4 -4 -10z"/>
<path d="M1330 110 c0 -5 5 -10 11 -10 5 0 7 5 4 10 -3 6 -8 10 -11 10 -2 0
-4 -4 -4 -10z"/>
<path d="M1490 110 c0 -5 5 -10 11 -10 5 0 7 5 4 10 -3 6 -8 10 -11 10 -2 0
-4 -4 -4 -10z"/>
<path d="M1636 112 c-3 -5 1 -9 9 -9 8 0 12 4 9 9 -3 4 -7 8 -9 8 -2 0 -6 -4
-9 -8z"/>
<path d="M1756 108 c3 -4 11 -5 19 -1 21 7 19 12 -4 10 -11 0 -18 -5 -15 -9z"/>
<path d="M1876 108 c3 -4 11 -5 19 -1 21 7 19 12 -4 10 -11 0 -18 -5 -15 -9z"/>
<path d="M1996 108 c3 -4 11 -5 19 -1 21 7 19 12 -4 10 -11 0 -18 -5 -15 -9z"/>
<path d="M2116 108 c3 -4 11 -5 19 -1 21 7 19 12 -4 10 -11 0 -18 -5 -15 -9z"/>
<path d="M2290 110 c0 -5 5 -10 11 -10 5 0 7 5 4 10 -3 6 -8 10 -11 10 -2 0
-4 -4 -4 -10z"/>
<path d="M2450 110 c0 -5 5 -10 11 -10 5 0 7 5 4 10 -3 6 -8 10 -11 10 -2 0
-4 -4 -4 -10z"/>
<path d="M2610 110 c0 -5 5 -10 11 -10 5 0 7 5 4 10 -3 6 -8 10 -11 10 -2 0
-4 -4 -4 -10z"/>
<path d="M2770 110 c0 -5 5 -10 11 -10 5 0 7 5 4 10 -3 6 -8 10 -11 10 -2 0
-4 -4 -4 -10z"/>
<path d="M2916 112 c-3 -5 1 -9 9 -9 8 0 12 4 9 9 -3 4 -7 8 -9 8 -2 0 -6 -4
-9 -8z"/>
<path d="M3036 108 c3 -4 11 -5 19 -1 21 7 19 12 -4 10 -11 0 -18 -5 -15 -9z"/>
<path d="M3156 108 c3 -4 11 -5 19 -1 21 7 19 12 -4 10 -11 0 -18 -5 -15 -9z"/>
<path d="M3276 108 c3 -4 11 -5 19 -1 21 7 19 12 -4 10 -11 0 -18 -5 -15 -9z"/>
<path d="M3396 108 c3 -4 11 -5 19 -1 21 7 19 12 -4 10 -11 0 -18 -5 -15 -9z"/>
<path d="M3570 110 c0 -5 5 -10 11 -10 5 0 7 5 4 10 -3 6 -8 10 -11 10 -2 0
-4 -4 -4 -10z"/>
<path d="M3733 113 c4 -3 1 -13 -6 -22 -11 -14 -10 -14 5 -2 16 12 16 31 1 31
-4 0 -3 -3 0 -7z"/>
<path d="M3775 111 c-3 -5 -2 -12 3 -15 5 -3 9 1 9 9 0 17 -3 19 -12 6z"/>
</g>
</svg>
